# xmcd CD database file
#
# Track frame offsets:
#	150
#	9853
#	22576
#	40713
#	61654
#	82446
#	98932
#	106533
#	123350
#	141332
#	161403
#
# Disc length: 2346 seconds
#
# Revision: 1
# Processed by: cddbd v1.5.1PL2 Copyright (c) Steve Scherf et al.
# Submitted via: CDex 1.51
#
DISCID=7809280b
DTITLE=Electric Jazz Orchestra - Ubuntu
DYEAR=2005
DGENRE=Jazz
TTITLE0=Jericho
TTITLE1=Come Fly With Me
TTITLE2=I Get A Kick Out Of You
TTITLE3=Come Rain or Come Shine
TTITLE4=Big Foot
TTITLE5=Till You Come Back To Me
TTITLE6=Take Me Out To The Ball Game
TTITLE7=Six String Shuffle
TTITLE8=Amazing Grace
TTITLE9=Land of Make Believe
TTITLE10=Respect
EXTD=YEAR: 2005
EXTT0=
EXTT1=
EXTT2=
EXTT3=
EXTT4=
EXTT5=
EXTT6=
EXTT7=
EXTT8=
EXTT9=
EXTT10=
PLAYORDER=
